<svg width="33" height="13" viewBox="0 0 33 13" fill="none" xmlns="http://www.w3.org/2000/svg">
<path d="M3.14016 12.7241V0.189994H4.45187V12.7241H3.14016ZM0.498535 1.37417V0.189994H4.26969V1.37417H0.498535Z" fill="#838D95"/>
<path d="M10.6048 11.9043L15.2504 7.05823C15.7848 6.4874 16.1977 6.00765 16.4892 5.619C16.7929 5.23034 16.9993 4.87813 17.1086 4.56235C17.2301 4.23442 17.2908 3.89435 17.2908 3.54213C17.2908 2.82555 17.0661 2.26686 16.6167 1.86606C16.1674 1.45312 15.5722 1.24664 14.8314 1.24664C14.1512 1.24664 13.5561 1.41061 13.046 1.73853C12.5359 2.05432 12.0804 2.53406 11.6796 3.17777L10.7505 2.35795C11.2363 1.59279 11.8193 1.00981 12.4994 0.609011C13.1796 0.208212 13.969 0.0078125 14.8678 0.0078125C15.6208 0.0078125 16.2767 0.153557 16.8354 0.445047C17.4062 0.736537 17.8434 1.14948 18.1471 1.68388C18.4628 2.21828 18.6207 2.84377 18.6207 3.56035C18.6207 4.05831 18.5539 4.51376 18.4203 4.92671C18.2867 5.32751 18.0499 5.7526 17.7098 6.20198C17.3819 6.63921 16.9143 7.17361 16.307 7.80517L12.3719 11.8496L10.6048 11.9043ZM10.6048 12.7241V11.9043L11.6978 11.5217H18.9304V12.7241H10.6048Z" fill="#838D95"/>
<path d="M28.1831 12.9062C27.3815 12.9062 26.6467 12.7484 25.9787 12.4326C25.3229 12.1168 24.7703 11.6613 24.3209 11.0662L25.2136 10.1735C25.5172 10.6351 25.9301 10.9994 26.4524 11.2666C26.9747 11.5217 27.5455 11.6492 28.1649 11.6492C28.7722 11.6492 29.2944 11.5338 29.7317 11.3031C30.181 11.0723 30.5272 10.7504 30.7701 10.3375C31.0252 9.9124 31.1527 9.42051 31.1527 8.86182C31.1527 8.29099 31.0252 7.7991 30.7701 7.38616C30.5272 6.97321 30.175 6.65136 29.7134 6.4206C29.2641 6.18983 28.7236 6.07445 28.092 6.07445C27.8856 6.07445 27.673 6.0866 27.4544 6.11089C27.2479 6.13518 27.0415 6.17769 26.835 6.23841L27.3451 5.49147C27.5516 5.38216 27.7763 5.29714 28.0192 5.23642C28.2621 5.17569 28.5293 5.14533 28.8208 5.14533C29.513 5.14533 30.1385 5.30929 30.6972 5.63722C31.2559 5.953 31.6931 6.3963 32.0089 6.96714C32.3369 7.52583 32.5008 8.17561 32.5008 8.91648C32.5008 9.70593 32.3186 10.3982 31.9543 10.9933C31.5899 11.5885 31.0798 12.0561 30.424 12.3961C29.7802 12.7362 29.0333 12.9062 28.1831 12.9062ZM26.835 6.23841V5.4186L30.8065 0.955155L32.3551 1.00981L28.3106 5.52791L26.835 6.23841ZM24.8674 1.37417V0.189994H32.3551V1.00981L31.2073 1.37417H24.8674Z" fill="#838D95"/>
</svg>
