<svg width="25" height="25" viewBox="0 0 25 25" fill="none" xmlns="http://www.w3.org/2000/svg">
<circle cx="12.0366" cy="12.2402" r="12" fill="#53616C"/>
<path d="M17.3826 11.4769H12.8003V6.89458C12.8003 6.69203 12.7198 6.49778 12.5766 6.35455C12.4334 6.21132 12.2391 6.13086 12.0366 6.13086C11.834 6.13086 11.6398 6.21132 11.4965 6.35455C11.3533 6.49778 11.2728 6.69203 11.2728 6.89458V11.4769H6.69048C6.48793 11.4769 6.29367 11.5574 6.15045 11.7006C6.00722 11.8439 5.92676 12.0381 5.92676 12.2407C5.92676 12.4432 6.00722 12.6375 6.15045 12.7807C6.29367 12.9239 6.48793 13.0044 6.69048 13.0044H11.2728V17.5867C11.2728 17.7893 11.3533 17.9835 11.4965 18.1268C11.6398 18.27 11.834 18.3505 12.0366 18.3505C12.2391 18.3505 12.4334 18.27 12.5766 18.1268C12.7198 17.9835 12.8003 17.7893 12.8003 17.5867V13.0044H17.3826C17.5852 13.0044 17.7794 12.9239 17.9227 12.7807C18.0659 12.6375 18.1464 12.4432 18.1464 12.2407C18.1464 12.0381 18.0659 11.8439 17.9227 11.7006C17.7794 11.5574 17.5852 11.4769 17.3826 11.4769Z" fill="white"/>
</svg>
