<svg width="21" height="30" viewBox="0 0 21 30" fill="none" xmlns="http://www.w3.org/2000/svg">
<path d="M3.46527 14.8575L10.1172 25.3134C10.1582 25.3778 10.2147 25.4308 10.2815 25.4675C10.3484 25.5042 10.4234 25.5235 10.4997 25.5235C10.576 25.5235 10.651 25.5042 10.7179 25.4675C10.7848 25.4308 10.8413 25.3778 10.8822 25.3134L17.5337 14.8575C17.542 14.8444 17.5495 14.831 17.5563 14.8171C18.6712 13.3159 19.272 11.4951 19.2694 9.62519C19.2694 7.29931 18.3455 5.0687 16.7008 3.42406C15.0562 1.77942 12.8256 0.855469 10.4997 0.855469C8.17384 0.855469 5.94322 1.77942 4.29858 3.42406C2.65394 5.0687 1.72999 7.29931 1.72999 9.62519C1.72733 11.4941 2.32762 13.3141 3.44169 14.8147C3.44871 14.8294 3.45658 14.8437 3.46527 14.8575ZM10.4997 1.76135C12.5845 1.76377 14.5833 2.59307 16.0574 4.06732C17.5316 5.54156 18.3608 7.54036 18.3631 9.62519C18.3649 11.3275 17.809 12.9835 16.7803 14.3398C16.7571 14.3705 16.7382 14.4042 16.724 14.4399L10.4997 24.2262L4.27782 14.4462C4.263 14.4089 4.24326 14.3738 4.21913 14.3418C3.19044 12.9854 2.63449 11.3294 2.63636 9.62711C2.63814 7.54195 3.46709 5.54266 4.9413 4.068C6.41551 2.59334 8.41455 1.76377 10.4997 1.76135Z" fill="#838D95"/>
<path d="M14.7121 24.5242C14.5923 24.5144 14.4735 24.5525 14.3819 24.6303C14.2902 24.7081 14.2332 24.8191 14.2234 24.9389C14.2135 25.0587 14.2517 25.1775 14.3295 25.2692C14.4073 25.3608 14.5183 25.4178 14.6381 25.4277C17.4794 25.661 19.1757 26.2965 19.1757 27.1269C19.1757 27.7422 16.1131 28.9391 10.4998 28.9391C4.88644 28.9391 1.82385 27.7422 1.82385 27.1269C1.82385 26.7314 2.25682 25.774 6.28881 25.4334C6.40704 25.4214 6.5158 25.3633 6.59166 25.2719C6.66752 25.1804 6.70441 25.0628 6.69438 24.9443C6.68434 24.8259 6.6282 24.7162 6.53803 24.6388C6.44786 24.5613 6.33089 24.5224 6.21232 24.5304C2.64939 24.8316 0.91748 25.6812 0.91748 27.1283C0.91748 28.9949 5.8847 29.8455 10.4998 29.8455C15.1148 29.8455 20.082 28.9949 20.082 27.1269C20.082 25.6725 18.3256 24.821 14.7121 24.5242ZM5.64079 11.1389H6.8435V14.9563C6.8435 15.0158 6.85523 15.0747 6.87801 15.1297C6.90079 15.1847 6.93418 15.2346 6.97626 15.2766C7.01835 15.3187 7.06832 15.352 7.1233 15.3747C7.17828 15.3974 7.23719 15.4091 7.29668 15.409H13.7023C13.7618 15.4091 13.8208 15.3974 13.8757 15.3747C13.9307 15.352 13.9807 15.3187 14.0228 15.2766C14.0649 15.2346 14.0982 15.1847 14.121 15.1297C14.1438 15.0747 14.1555 15.0158 14.1555 14.9563V11.1389H15.3582C15.5751 11.146 15.7889 11.0861 15.9705 10.9673C16.152 10.8485 16.2925 10.6766 16.3729 10.475C16.4351 10.2988 16.4397 10.1073 16.3859 9.92823C16.3321 9.74921 16.2227 9.59194 16.0736 9.47918L11.2147 5.5386C11.0096 5.3806 10.7581 5.29492 10.4993 5.29492C10.2405 5.29492 9.98891 5.3806 9.7839 5.5386L4.92493 9.47869C4.77588 9.59138 4.66654 9.74856 4.61275 9.92751C4.55895 10.1064 4.56349 10.2979 4.62569 10.4741C4.70595 10.6758 4.84649 10.848 5.02815 10.9669C5.20981 11.0859 5.42374 11.146 5.64079 11.1389ZM11.2859 14.5032H9.8907C9.94639 14.4294 9.97752 14.3401 9.9797 14.2477V12.6539C9.97741 12.5723 9.99149 12.4912 10.0211 12.4152C10.0507 12.3392 10.0953 12.27 10.1521 12.2115C10.209 12.153 10.277 12.1065 10.3521 12.0748C10.4272 12.0431 10.5079 12.0267 10.5895 12.0267C10.671 12.0267 10.7518 12.0431 10.8269 12.0748C10.902 12.1065 10.97 12.153 11.0268 12.2115C11.0837 12.27 11.1282 12.3392 11.1579 12.4152C11.1875 12.4912 11.2015 12.5723 11.1993 12.6539V14.2477C11.2005 14.3397 11.2304 14.429 11.2849 14.5032H11.2859ZM10.3554 6.24243C10.3983 6.21424 10.4485 6.19922 10.4998 6.19922C10.5511 6.19922 10.6012 6.21424 10.6441 6.24243L15.5031 10.1825L15.5189 10.1715C15.5141 10.1835 15.4708 10.2321 15.3582 10.2321H13.7023C13.5822 10.2321 13.4669 10.2798 13.3819 10.3648C13.2969 10.4498 13.2492 10.5651 13.2492 10.6853V14.5027H12.0133C12.0686 14.4288 12.0995 14.3395 12.1018 14.2472V12.6539C12.1069 12.4516 12.0714 12.2504 11.9976 12.0621C11.9237 11.8738 11.8129 11.7022 11.6717 11.5574C11.5304 11.4125 11.3617 11.2974 11.1753 11.2188C10.9889 11.1403 10.7886 11.0998 10.5864 11.0998C10.3841 11.0998 10.1838 11.1403 9.99743 11.2188C9.81104 11.2974 9.64225 11.4125 9.50103 11.5574C9.35981 11.7022 9.249 11.8738 9.17513 12.0621C9.10126 12.2504 9.06583 12.4516 9.07093 12.6539V14.2477C9.07311 14.3401 9.10424 14.4294 9.15993 14.5032H7.75035V10.6857C7.75041 10.6262 7.73875 10.5673 7.71603 10.5123C7.6933 10.4574 7.65997 10.4074 7.61793 10.3653C7.57588 10.3232 7.52596 10.2898 7.471 10.2671C7.41604 10.2443 7.35714 10.2326 7.29765 10.2326H5.64079C5.52869 10.2326 5.48443 10.1844 5.49646 10.1844L10.3554 6.24243Z" fill="#838D95"/>
</svg>
