<svg width="47" height="27" viewBox="0 0 47 27" fill="none" xmlns="http://www.w3.org/2000/svg">
<path fill-rule="evenodd" clip-rule="evenodd" d="M12.4563 26.1273C11.1191 25.5314 13.0026 22.4797 13.7852 21.9571C13.8993 21.4838 14.4782 21.1409 14.6575 20.57C15.1468 20.0806 15.5546 18.285 16.068 17.9261C16.068 17.6159 17.7966 14.9066 18.1063 14.776C18.4081 14.1722 18.7993 13.5602 19.4271 12.9808C19.4271 12.589 23.1617 8.73742 23.4469 8.80267C23.5368 8.32116 26.4311 6.67297 25.8848 7.7744C24.4825 9.68386 22.6805 11.4465 21.1071 13.2499C20.5526 13.5275 17.7477 17.2323 17.4787 17.567C17.3155 18.0729 16.5249 18.5379 16.4187 19.0683C17.2829 18.4155 21.0419 15.3636 22.216 16.5387C22.6564 17.8606 19.0117 21.1738 18.2533 21.9898C17.0302 23.1078 14.2256 25.956 12.4563 26.1273Z" fill="#838D95"/>
<path fill-rule="evenodd" clip-rule="evenodd" d="M12.424 25.8822C11.837 24.8295 13.1333 23.2303 13.7123 22.3651C13.8182 22.3162 14.0385 21.7205 14.12 21.9652C12.7585 25.1558 15.5223 23.0913 15.2778 22.3406C14.8619 22.5446 14.4544 23.4423 14.0711 23.5157C13.8185 22.7487 14.8619 20.5535 15.5471 20.2107C15.5471 19.9331 15.9709 19.9578 15.4164 19.9902C15.2778 20.4717 14.9271 20.4146 15.2941 19.9412C16.2401 16.9627 18.515 14.8164 20.1295 12.3928C20.6921 11.9439 21.7765 10.2629 22.3878 10.0589C22.3878 9.61822 25.0539 7.9374 25.5513 7.66797C25.6412 7.75769 24.1327 9.57744 23.8472 9.78136C23.8472 9.78951 20.7491 13.2332 20.7084 13.2414C20.7084 13.3637 20.2683 13.78 20.1621 13.8613C19.7057 14.4733 15.3433 19.5084 15.6614 19.8268C15.9225 19.9084 19.2082 17.4929 19.7627 17.1419C21.1324 16.4809 22.8529 15.8363 21.3853 18.0476C20.2601 19.5084 18.923 21.0671 17.5123 22.2746C17.4878 22.3725 17.374 22.4214 17.3004 22.4622C16.0687 23.5647 13.9486 25.6702 12.424 25.8822Z" fill="#FAFAFA"/>
<path fill-rule="evenodd" clip-rule="evenodd" d="M19.0855 23.7514C18.6943 23.2862 22.2898 18.5858 22.9586 17.6965C23.0727 17.5578 24.8339 14.9382 24.9643 15.9012C23.9773 17.3047 22.9828 18.7166 22.1023 20.1772C22.1023 20.4382 26.024 15.1016 26.2115 16.4232C25.8284 17.2394 25.2416 17.9414 24.7768 18.7084C24.6383 18.839 23.5128 20.4137 23.5128 20.6913C25.0947 18.7166 26.6763 16.5132 28.4456 14.6935C28.6007 14.5548 28.8781 14.2935 28.9756 14.6853C27.9077 16.4643 26.497 18.0312 25.5348 19.8917C25.0295 21.1891 25.8613 20.0467 26.2115 19.5489C26.9211 18.749 27.6548 17.8678 28.7635 16.603C28.7963 16.448 29.7176 15.3871 29.9542 15.2321C30.3209 14.563 33.3869 11.5274 33.2236 11.4866C32.498 11.7965 27.9645 13.7957 27.9645 12.9556C29.3179 12.0988 31.2997 11.5276 32.8569 11.1848C32.8892 11.2174 36.0446 10.2136 36.0446 10.1157C36.5909 9.91179 37.1701 9.68314 37.7487 9.47106C38.8332 9.47106 38.5235 9.07927 39.3385 9.00586C39.3961 8.88351 40.847 8.53251 40.847 8.53251C40.9611 8.36122 42.5919 8.10809 42.5677 8.05915C41.7606 8.14888 44.3449 7.5858 44.4588 7.4716C45.747 7.25926 44.0757 8.07547 43.9453 7.80603C43.8396 8.02626 41.3116 8.53225 41.0426 8.63828C40.8717 8.86694 40.2032 8.89141 40.0644 8.89141C40.0644 9.24215 39.0856 9.01376 39.461 9.20136C39.1673 9.49527 38.9228 9.2503 38.89 9.2503C38.8082 9.82154 38.2543 9.13611 38.1725 9.66656C37.8218 9.69919 35.1394 10.6133 35.0171 10.8988C35.2451 10.8988 37.1532 10.9722 35.9218 10.9722C35.7509 10.858 34.536 11.1519 34.2098 11.1845C33.1905 12.5554 31.9509 13.7957 31.0463 15.2239C30.6385 15.5176 30.3853 16.1788 30.0351 16.5869C29.823 17.0763 27.0507 21.1891 28.086 20.675C30.3367 18.7982 32.375 16.66 34.2826 14.4406C34.5928 13.9102 34.2014 13.4939 34.7232 13.4939C35.4081 14.0081 33.557 15.3384 35.84 13.6C37.1448 12.9472 35.2937 15.0116 35.2937 15.0116C35.7591 14.824 38.7346 13.3797 37.2505 15.3134C37.2505 15.6236 40.1698 12.3267 40.0063 13.4858C39.7946 13.6652 36.2557 17.0353 37.0307 17.2231C38.4735 16.6682 40.1372 14.8074 40.4958 13.2734C40.4958 11.1435 38.009 11.3718 37.9033 10.9314C39.6968 10.9966 41.5887 12.2373 40.3412 14.563C39.8435 15.3137 37.6422 18.088 36.6637 17.3294C36.3459 16.7987 37.0962 16.2193 37.2671 15.8278C36.2807 15.9665 33.5983 20.2751 32.8803 19.5573C32.8803 19.2471 37.8702 14.6937 37.1772 14.5793C34.7398 15.3629 33.8262 16.4724 32.1794 18.3248C30.5567 19.5407 32.0732 17.3947 32.0813 17.3047C30.6708 18.3819 29.5622 20.2017 27.9966 21.0342C27.5155 21.0342 27.5807 20.8629 27.5641 20.5361C28.5668 17.7128 30.7113 15.0198 32.6111 12.7267C32.4725 12.7267 29.3824 16.1538 29.1868 16.5459C26.2107 20.0383 25.102 21.6215 24.9551 20.5687C25.2729 19.4507 26.0884 18.1291 26.8138 17.2963C26.9442 16.8963 27.45 16.4069 27.6945 16.0151C27.6945 16.0072 24.7185 19.4426 23.9195 20.6995C22.6883 22.1356 22.5905 21.5236 23.4223 20.1201C25.1344 17.6231 25.6155 17.0026 25.6155 16.815C24.2379 18.194 22.9412 19.712 21.7019 21.2623C21.4819 21.4254 21.3349 21.5399 21.1719 21.2868C21.392 20.4706 22.1746 19.4752 22.615 18.7408C22.615 18.5529 21.1146 20.7563 21.0249 20.9034C20.5777 21.4257 19.5829 23.4659 19.0855 23.7514ZM7.56458 22.4048C6.79822 21.9069 8.51051 19.4262 8.64091 18.6348C8.82047 18.3246 9.88023 15.7623 10.1168 15.7623C10.0679 15.395 11.2013 14.0404 10.7202 14.0978C10.182 13.6407 12.4651 11.8536 12.5873 11.2332C13.5333 9.96836 14.5444 8.53224 15.3596 7.19375C15.6207 7.19375 17.1045 4.06024 17.3001 5.03931C15.9793 6.82643 14.5849 8.65433 13.4026 10.5393C13.4026 11.135 17.2186 6.94878 17.4061 6.87537C17.4061 6.67935 20.2191 4.0926 20.2436 4.07629C20.4147 3.94578 20.9774 3.2764 21.0833 3.83975C20.5859 4.58254 17.7973 8.19756 17.8464 8.40121C19.4362 7.2098 20.5943 8.00969 18.8739 10.1639C18.6291 10.9474 17.333 12.5956 16.9415 13.1832C14.1695 17.1166 11.9679 20.5114 11.8373 18.7405C11.9188 18.4956 12.0003 18.2425 12.0818 17.9896C13.0522 15.811 14.1364 13.8115 15.2697 11.8205C15.3841 11.7552 16.5824 9.63341 16.5498 9.63341C15.4572 10.6127 14.9516 11.3226 14.1771 12.5875C13.916 12.7998 11.3967 16.5698 11.1522 17.1492C10.5162 18.1206 8.09459 22.2743 7.56458 22.4048ZM0.576892 22.0132C-0.523882 21.246 2.04468 16.1704 2.99034 15.2237C3.04739 14.9053 4.58852 13.0529 4.80857 12.9469C4.89007 12.6204 7.20572 10.2294 7.39343 10.2294C7.53198 9.95205 9.62758 8.10783 9.96988 8.04231C9.96988 7.9689 11.0299 7.26716 11.1522 7.16928C11.6088 6.32887 14.4789 1.34273 13.7859 0.649142C11.9595 0.192364 9.13017 3.08091 7.90714 4.256C6.21116 6.10838 4.16472 8.50751 3.49616 11.0211C3.49616 12.5877 8.27416 7.8384 8.82862 7.30821C9.76639 6.61462 10.3453 6.45122 9.18748 7.34083C8.48632 8.00179 4.67844 11.8452 3.47171 11.6739C2.62359 10.6785 5.1025 7.43871 5.66511 6.50858C5.80366 6.45964 7.15735 4.78672 7.17365 4.66437C7.75256 4.08497 8.61672 3.03223 9.30973 2.64886C9.30973 2.19182 12.5629 0.518897 12.7014 0.461799C15.2863 -0.0931225 13.6148 2.56703 13.2233 3.87264C13.0929 4.05235 11.7148 6.64698 11.674 6.8759C11.7881 6.83511 12.4485 6.54936 12.5466 6.84301C10.5898 7.58554 10.5814 9.16873 9.30132 10.5806C8.17609 12.5798 6.43936 14.5056 5.42035 16.5459C4.10741 17.8596 2.42773 21.8338 0.576892 22.0132Z" fill="#838D95"/>
<path fill-rule="evenodd" clip-rule="evenodd" d="M7.71905 21.8904C7.71905 21.6049 9.40689 17.0677 9.86355 16.7251C9.97765 16.3496 10.2632 15.6886 10.4914 15.46C11.5593 13.0364 13.5815 11.4287 15.2449 9.43768C16.9732 8.37677 13.3696 12.5957 13.3696 12.702C13.4593 12.6367 14.9594 11.1269 14.2012 12.1389C14.0056 12.1878 10.7766 17.1166 10.4017 17.8023C9.43134 18.9119 8.79537 20.8787 7.71905 21.8904ZM0.600959 21.7683C0.030197 19.7036 3.52812 14.5301 4.88969 13.1674C4.98749 12.9635 5.6968 12.2126 5.86006 12.1065C6.97714 10.6212 8.64841 9.61765 9.93663 8.32836C10.1651 8.28758 10.597 7.9121 10.8092 7.77344C8.33056 11.6821 5.72125 15.5176 3.11221 19.3692C2.49281 20.0791 1.50613 21.5155 0.600959 21.7683ZM12.1547 18.92C12.4158 17.1982 14.3563 13.9749 15.2042 12.5225C15.3837 11.625 16.8675 9.86235 17.3158 9.07878C17.5443 8.90749 19.3869 7.53663 19.4929 8.31994C18.971 9.81315 17.9194 11.1432 17.1528 12.3675C17.1528 12.5551 15.2938 15.044 15.0982 15.3542C14.2256 16.407 13.3612 18.1122 12.1547 18.92ZM32.1388 17.9002C32.3344 17.5657 33.4764 15.4603 33.9736 15.9578C32.53 17.5165 32.53 17.5165 32.1388 17.9002ZM34.0874 15.55C34.1855 15.3461 35.3188 14.3178 35.4574 14.3178C35.0985 14.7093 34.6421 15.4032 34.0874 15.55Z" fill="#FAFAFA"/>
<path fill-rule="evenodd" clip-rule="evenodd" d="M29.2607 12.6689C29.3748 12.5139 31.0708 11.8364 31.3156 11.8853C30.6307 12.1958 29.954 12.4324 29.2607 12.6689Z" fill="#FAFAFA"/>
<path fill-rule="evenodd" clip-rule="evenodd" d="M10.1734 12.3096C9.52925 11.665 11.1519 10.2534 11.1519 9.69844C9.0158 12.122 10.0593 9.50241 10.4589 9.90236C11.2418 9.90236 13.7367 5.22644 14.6743 4.99805C15.1472 5.38168 13.2475 6.99724 12.9541 7.59294C12.1223 8.54755 11.5762 9.64923 10.9074 10.7183C10.9074 10.8733 13.6226 7.67451 14.2013 7.24194C14.3154 7.01355 16.1176 4.86728 16.2806 5.52034C14.5765 7.58479 12.8805 9.6495 11.1437 11.6813C10.8093 11.9913 10.5811 12.2686 10.1734 12.3096Z" fill="#838D95"/>
<path fill-rule="evenodd" clip-rule="evenodd" d="M12.4565 12.0993C12.4565 11.6748 14.8129 9.60198 13.8181 10.5976C13.4514 11.1444 12.7907 11.5441 12.4565 12.0993Z" fill="#FAFAFA"/>
<path fill-rule="evenodd" clip-rule="evenodd" d="M15.881 9.91178C15.881 9.42211 16.2644 9.21819 15.7588 9.00612C15.8647 8.58171 18.5392 6.03575 18.6696 5.96234C19.1967 5.43382 19.7378 4.9195 20.2923 4.41992C20.2923 4.87696 18.5148 6.72933 18.05 7.53712C17.4382 8.38568 16.7941 9.36502 15.881 9.91178Z" fill="#FAFAFA"/>
<path fill-rule="evenodd" clip-rule="evenodd" d="M45.0461 7.62807C45.0298 7.00789 45.8774 7.53019 45.7636 7.17945C46.3917 7.17945 45.568 7.66096 45.3072 7.39968C45.2499 7.48151 45.0948 7.62807 45.0461 7.62807ZM46.5137 7V7.08972C46.4319 7.10604 46.3585 7.45704 46.3015 7.11446C46.408 7.08157 46.408 7.08157 46.5137 7Z" fill="#838D95"/>
</svg>
