<svg width="26" height="26" viewBox="0 0 26 26" fill="none" xmlns="http://www.w3.org/2000/svg">
<path d="M20.1128 25.0553L22.6141 25.0536C23.7182 25.0529 24.6128 24.1577 24.6128 23.0536V3.05791C24.6128 1.95352 23.7176 1.05817 22.6133 1.05791L12.6571 1.05556L2.61886 1.0532C1.51444 1.05294 0.618862 1.94793 0.618387 3.05234L0.612793 16.0523M20.1128 25.0553H2.61781C1.5138 25.0553 0.618606 24.1608 0.617815 23.0567L0.612793 16.0523M20.1128 25.0553L8.02301 11.6195C7.2565 10.7677 5.93238 10.7328 5.12207 11.5431L0.612793 16.0523M20.1128 10.0523C20.1128 11.7092 18.7696 13.0523 17.1128 13.0523C15.4559 13.0523 14.1128 11.7092 14.1128 10.0523C14.1128 8.39547 15.4559 7.05232 17.1128 7.05232C18.7696 7.05232 20.1128 8.39547 20.1128 10.0523Z" stroke="#838D95" stroke-width="1.1" stroke-linecap="round" stroke-linejoin="round"/>
</svg>
