<svg width="21" height="21" viewBox="0 0 21 21" fill="none" xmlns="http://www.w3.org/2000/svg">
<path d="M5.83333 14.7194C2.54975 11.4358 1.06315 8.4165 0.635974 7.44029C0.541118 7.22352 0.5 6.99043 0.5 6.75382V4.41057C0.5 3.88014 0.710714 3.37143 1.08579 2.99636L2.6152 1.46695C3.39625 0.685899 4.66258 0.6859 5.44363 1.46695L7.57592 3.59924C8.25005 4.27337 8.35463 5.32961 7.8258 6.12285L7.02616 7.32232C6.62805 7.91949 6.57816 8.68513 6.93774 9.30627C7.3905 10.0883 8.0629 11.145 8.7353 11.8174C9.40769 12.4898 10.4644 13.1622 11.2465 13.615C11.8676 13.9746 12.6332 13.9247 13.2304 13.5266L14.4299 12.7269C15.2231 12.1981 16.2794 12.3027 16.9535 12.9768L19.0858 15.1091C19.8668 15.8902 19.8668 17.1565 19.0858 17.9375L17.5564 19.4669C17.1813 19.842 16.6726 20.0527 16.1422 20.0527H13.7989C13.5623 20.0527 13.3292 20.0116 13.1125 19.9168C12.1362 19.4896 9.11692 18.003 5.83333 14.7194Z" stroke="#838D95" stroke-linecap="round" stroke-linejoin="round"/>
</svg>
