<svg width="21" height="21" viewBox="0 0 21 21" fill="none" xmlns="http://www.w3.org/2000/svg">
<path d="M19.2381 14.9114C20.067 13.4262 20.5022 11.7536 20.5022 10.0527C20.5022 8.35187 20.067 6.6793 19.2381 5.19412C19.2338 5.14582 19.219 5.09904 19.1948 5.057C19.1707 5.01497 19.1376 4.97869 19.0981 4.95067C17.9801 3.06611 16.2741 1.60092 14.2423 0.780362C12.2105 -0.0401921 9.96546 -0.170683 7.85229 0.408952C5.73913 0.988587 3.87484 2.24626 2.54606 3.9886C1.21728 5.73095 0.497559 7.86152 0.497559 10.0527C0.497559 12.244 1.21728 14.3745 2.54606 16.1169C3.87484 17.8592 5.73913 19.1169 7.85229 19.6965C9.96546 20.2762 12.2105 20.1457 14.2423 19.3251C16.2741 18.5046 17.9801 17.0394 19.0981 15.1548C19.1376 15.1268 19.1707 15.0905 19.1948 15.0485C19.219 15.0064 19.2338 14.9597 19.2381 14.9114ZM4.77118 15.2251H6.35014C6.68075 16.5264 7.28511 17.7422 8.1229 18.7914C6.64938 17.9964 5.47334 16.7451 4.77118 15.2251ZM1.20049 10.3976H2.92256C2.95401 11.8122 3.22497 13.2114 3.72394 14.5355H2.34463C1.64379 13.2651 1.25184 11.8475 1.20049 10.3976ZM2.34532 5.56998H3.72463C3.22566 6.89411 2.9547 8.29323 2.92325 9.70791H1.20049C1.25205 8.25786 1.64424 6.84032 2.34532 5.56998ZM16.2332 4.88032H14.6543C14.3237 3.57905 13.7193 2.36327 12.8815 1.31412C14.355 2.10909 15.5311 3.36039 16.2332 4.88032ZM19.8039 9.70791H18.0819C18.0504 8.29323 17.7795 6.89411 17.2805 5.56998H18.6598C19.3606 6.84038 19.7526 8.25792 19.8039 9.70791ZM17.3922 9.70791H15.3257C15.3108 8.31493 15.1458 6.92761 14.8336 5.56998H16.5443C17.0732 6.88714 17.3605 8.28885 17.3922 9.70791ZM10.1574 5.56998V9.70791H6.36842C6.38688 8.31314 6.56341 6.92497 6.89463 5.56998H10.1574ZM7.08497 4.88032C7.77463 2.60929 8.896 1.02619 10.1574 0.778944V4.88032H7.08497ZM10.1574 10.3976V14.5355H6.89463C6.56341 13.1805 6.38688 11.7923 6.36842 10.3976H10.1574ZM10.1574 15.2251V19.3265C8.896 19.0793 7.77497 17.4962 7.08497 15.2251H10.1574ZM10.847 14.5355V10.3976H14.636C14.6175 11.7923 14.441 13.1805 14.1098 14.5355H10.847ZM13.9195 15.2251C13.2298 17.4962 12.1081 19.0793 10.847 19.3265V15.2251H13.9195ZM10.847 9.70791V5.56998H14.1098C14.441 6.92497 14.6175 8.31314 14.636 9.70791H10.847ZM10.847 4.88032V0.778944C12.1081 1.02619 13.2291 2.60929 13.9195 4.88032H10.847ZM8.1229 1.31412C7.28511 2.36327 6.68075 3.57905 6.35014 4.88032H4.77118C5.47334 3.36039 6.64938 2.10909 8.1229 1.31412ZM6.17049 5.56998C5.85842 6.92762 5.69356 8.31494 5.67876 9.70791H3.61221C3.64383 8.28887 3.93095 6.88716 4.4598 5.56998H6.17049ZM3.61221 10.3976H5.67876C5.69356 11.7905 5.85842 13.1778 6.17049 14.5355H4.4598C3.93095 13.2183 3.64383 11.8166 3.61221 10.3976ZM12.8815 18.7914C13.7193 17.7422 14.3237 16.5264 14.6543 15.2251H16.2332C15.5311 16.7451 14.355 17.9964 12.8815 18.7914ZM14.8336 14.5355C15.1458 13.1779 15.3108 11.7905 15.3257 10.3976H17.3922C17.3605 11.8166 17.0732 13.2183 16.5443 14.5355H14.8336ZM18.0819 10.3976H19.8039C19.7524 11.8476 19.3602 13.2651 18.6591 14.5355H17.2798C17.779 13.2114 18.0502 11.8123 18.0819 10.3976ZM18.2391 4.88032H16.9926C16.4652 3.70245 15.7024 2.64491 14.7512 1.77274C16.1574 2.49769 17.3573 3.56674 18.2391 4.88032ZM6.2529 1.77274C5.30188 2.64502 4.53925 3.70254 4.01187 4.88032H2.76532C3.64698 3.56676 4.84676 2.4977 6.2529 1.77274ZM2.76532 15.2251H4.01187C4.53935 16.403 5.3021 17.4605 6.25325 18.3327C4.84698 17.6078 3.64708 16.5388 2.76532 15.2251ZM14.7512 18.3327C15.7024 17.4606 16.4652 16.403 16.9926 15.2251H18.2391C17.3573 16.5387 16.1574 17.6078 14.7512 18.3327Z" fill="#838D95"/>
</svg>
