<svg width="19" height="30" viewBox="0 0 19 30" fill="none" xmlns="http://www.w3.org/2000/svg">
<path d="M18.9106 16.0647V14.4962C18.9106 14.2064 18.7966 13.9359 18.5947 13.7399C18.4493 13.59 18.2626 13.4869 18.0583 13.4437V3.66032H18.6848C18.7446 3.66032 18.8019 3.63658 18.8442 3.59432C18.8864 3.55205 18.9102 3.49473 18.9102 3.43496V1.08083C18.9102 1.02106 18.8864 0.963739 18.8442 0.921476C18.8019 0.879212 18.7446 0.855469 18.6848 0.855469H0.314229C0.254459 0.855469 0.197138 0.879212 0.154874 0.921476C0.112611 0.963739 0.0888672 1.02106 0.0888672 1.08083V3.43496C0.0888672 3.49473 0.112611 3.55205 0.154874 3.59432C0.197138 3.63658 0.254459 3.66032 0.314229 3.66032H0.939834V13.4437C0.699724 13.4962 0.484766 13.6292 0.330635 13.8206C0.176504 14.012 0.0924682 14.2504 0.0924731 14.4962V16.0647C0.0924731 16.5785 0.456207 17.009 0.939834 17.1126V26.8969H0.314229C0.254459 26.8969 0.197138 26.9207 0.154874 26.9629C0.112611 27.0052 0.0888672 27.0625 0.0888672 27.1223V29.4764C0.0888672 29.5362 0.112611 29.5935 0.154874 29.6358C0.197138 29.6781 0.254459 29.7018 0.314229 29.7018H18.6844C18.7442 29.7018 18.8015 29.6781 18.8437 29.6358C18.886 29.5935 18.9097 29.5362 18.9097 29.4764V27.1223C18.9097 27.0625 18.886 27.0052 18.8437 26.9629C18.8015 26.9207 18.7442 26.8969 18.6844 26.8969H18.0579V17.1131C18.2983 17.0621 18.514 16.9302 18.6691 16.7394C18.8241 16.5486 18.909 16.3105 18.9097 16.0647H18.9106ZM18.4599 14.4962V16.0647C18.4599 16.4072 18.1787 16.6867 17.8334 16.6867C17.4904 16.6867 17.2114 16.4072 17.2114 16.0647V14.4962C17.2114 14.1505 17.4904 13.8697 17.8334 13.8697C18.0002 13.8697 18.1557 13.9355 18.276 14.0585C18.3946 14.1739 18.4599 14.3294 18.4599 14.4962ZM0.539591 1.30619H18.459V3.2096H0.539591V1.30619ZM16.255 10.0935C16.1744 10.3728 16.0773 10.647 15.9643 10.9147L15.9634 10.9174C15.8849 11.0959 15.802 11.2694 15.7164 11.4371L15.7128 11.4439L15.7114 11.4466C15.4423 11.9515 15.1141 12.4227 14.7338 12.8501L14.6657 12.924C14.4273 13.1813 14.171 13.4212 13.8986 13.6421C13.8253 13.7021 13.7502 13.7599 13.6732 13.8151C13.5213 13.9278 13.3649 14.0369 13.2 14.1369L13.1526 14.1658C13.0895 14.2041 13.0246 14.2442 12.948 14.2848C12.8615 14.3366 12.7709 14.3839 12.6884 14.4277L12.4396 14.5476C12.2652 14.626 12.0862 14.7008 11.9032 14.7657L11.3615 14.9424C11.3504 14.9441 11.3394 14.9464 11.3286 14.9492L11.0541 15.0168C10.6644 15.1033 10.2682 15.157 9.86957 15.1772C9.83926 15.1789 9.8096 15.1867 9.78238 15.2001C9.75515 15.2135 9.73092 15.2323 9.71113 15.2554C9.69135 15.2784 9.67642 15.3052 9.66725 15.3341C9.65807 15.3631 9.65483 15.3935 9.65773 15.4238C9.73977 16.2801 9.9462 17.9731 10.4032 19.6876C10.726 20.9091 11.6112 21.8849 12.7727 22.2991C13.7754 22.6546 14.7087 23.1815 15.5311 23.8564L16.5214 24.6677V26.8821H2.4723V24.8619L3.70097 23.8568C4.47938 23.219 5.35637 22.7121 6.29759 22.3559C7.39149 21.9412 8.23615 20.9979 8.55797 19.8336C9.03574 18.0943 9.25614 16.3243 9.34448 15.4242C9.34745 15.3939 9.34424 15.3633 9.33507 15.3343C9.3259 15.3053 9.31094 15.2784 9.2911 15.2554C9.27126 15.2323 9.24695 15.2135 9.21964 15.2C9.19233 15.1866 9.16258 15.1788 9.13219 15.1772C8.79545 15.161 8.46039 15.1197 8.12978 15.0537C8.02632 15.0352 7.92375 15.0121 7.82239 14.9843C7.73041 14.9627 7.63903 14.9387 7.54835 14.9122L7.24907 14.8184C7.10483 14.7707 6.96511 14.7184 6.82629 14.662C6.63157 14.5814 6.42514 14.484 6.18175 14.3574C6.0871 14.3055 5.99245 14.2537 5.89013 14.1888C5.81402 14.1444 5.73889 14.0985 5.66477 14.0509C5.30994 13.8205 4.97777 13.557 4.67273 13.2639C4.60185 13.1986 4.533 13.1311 4.4663 13.0615C4.38066 12.9763 4.29953 12.8862 4.21705 12.7902C4.11577 12.674 4.01777 12.5549 3.92318 12.4332C3.91867 12.4269 3.91506 12.4206 3.91055 12.4152C3.79697 12.2619 3.68339 12.1051 3.58333 11.9437C3.57764 11.9347 3.57131 11.9261 3.5644 11.918L3.54817 11.891C3.40714 11.6629 3.27835 11.4274 3.16235 11.1856C3.08031 11.0106 3.00454 10.8328 2.93519 10.6524C2.90003 10.5605 2.86533 10.469 2.83513 10.3784C2.78614 10.2284 2.74224 10.0769 2.70352 9.92403L2.69811 9.9015C6.19032 10.999 8.07795 10.6362 10.2518 10.2184C11.8325 9.91502 13.6178 9.57157 16.3366 9.76988C16.3163 9.85823 16.2937 9.94477 16.2708 10.0313C16.2649 10.0516 16.2608 10.0732 16.255 10.0935ZM8.10454 15.5049C8.34973 15.5522 8.6053 15.5901 8.87257 15.6117C8.77251 16.5474 8.55481 18.1448 8.12392 19.7142C7.83996 20.7401 7.09807 21.5703 6.13848 21.9345C5.15165 22.3075 4.23215 22.8388 3.41611 23.5075L2.4732 24.2796V22.3929C2.4732 19.0557 4.8395 16.1652 8.10454 15.5049ZM16.5223 24.0849L15.8173 23.5079C14.9549 22.8002 13.9761 22.2475 12.9246 21.8745C11.9037 21.5103 11.1248 20.6499 10.84 19.5718C10.4289 18.0303 10.2238 16.5046 10.1301 15.6113C10.3833 15.589 10.6353 15.5541 10.8851 15.5067C14.1528 16.1639 16.5223 19.0552 16.5223 22.3929V24.0849ZM10.1671 9.77574C8.00673 10.1918 6.13307 10.5483 2.59534 9.39353C2.51986 8.98916 2.48034 8.5789 2.47725 8.16756V3.66032H16.5263V8.16756C16.5263 8.56194 16.4903 8.94912 16.4267 9.32818C13.6209 9.11769 11.7847 9.46474 10.1671 9.77574ZM0.544098 16.0647V14.4962C0.544098 14.1505 0.823096 13.8697 1.1661 13.8697C1.33287 13.8697 1.48882 13.9355 1.60826 14.0585C1.72725 14.1739 1.7926 14.329 1.7926 14.4957V16.0647C1.7926 16.4072 1.51135 16.6867 1.1661 16.6867C0.823096 16.6867 0.544098 16.4072 0.544098 16.0647ZM1.39146 17.1131C1.63192 17.0621 1.84763 16.9302 2.00264 16.7394C2.15765 16.5486 2.2426 16.3105 2.24333 16.0647V14.4962C2.24333 14.2064 2.12929 13.9364 1.92737 13.7403C1.78222 13.5901 1.5954 13.4868 1.39101 13.4437V3.66032H2.02698V8.16756C2.02698 8.62369 2.07385 9.09831 2.1667 9.57833C2.16731 9.58848 2.16866 9.59857 2.17076 9.60853L2.18428 9.67073H2.18473L2.19825 9.73157C2.22034 9.83524 2.24197 9.93891 2.26857 10.0394V10.0403C2.31003 10.2017 2.35601 10.3621 2.40829 10.5199C2.44029 10.6177 2.4777 10.7155 2.51556 10.8147C2.58948 11.0049 2.66881 11.1942 2.7549 11.3763L2.75625 11.3785L2.7567 11.3799C2.87659 11.6404 3.01902 11.9005 3.19345 12.174C3.19796 12.1813 3.20472 12.1894 3.21148 12.1984C3.23492 12.2358 3.26151 12.2732 3.28675 12.3106C3.36112 12.4219 3.44 12.5342 3.5324 12.6559C3.53871 12.6694 3.54637 12.682 3.55584 12.6942L3.55719 12.696L3.55854 12.6978C3.66446 12.8317 3.77128 12.966 3.87945 13.0881C3.96419 13.1873 4.05388 13.2855 4.14358 13.3757C4.21434 13.4505 4.28961 13.5217 4.36263 13.5898C4.66912 13.8877 5.02519 14.1699 5.42048 14.429C5.49981 14.4799 5.58364 14.5313 5.65576 14.5732C5.75942 14.6395 5.86309 14.6963 5.97036 14.7549C6.23043 14.8901 6.44813 14.9929 6.65681 15.079C6.80555 15.1389 6.95429 15.1948 7.11024 15.2475L7.19994 15.2755C4.15304 16.2603 2.02247 19.126 2.02247 22.3929V26.8969H1.39146V17.1131ZM18.4599 29.2511H0.539591V27.3477H18.459V29.2511H18.4599ZM16.9725 26.8969V22.3929C16.9725 19.1292 14.8429 16.2648 11.7996 15.28L12.0542 15.1907C12.2489 15.1213 12.4392 15.042 12.6289 14.9568L12.8899 14.8306C12.9886 14.7797 13.0868 14.7274 13.1693 14.6774C13.2432 14.6386 13.3172 14.5935 13.3884 14.5503L13.4339 14.5223C13.6115 14.4146 13.7796 14.2979 13.9401 14.1789C14.0257 14.1176 14.1059 14.0558 14.1857 13.9896C14.4211 13.7997 14.645 13.596 14.8559 13.3793C14.9064 13.3297 14.9524 13.2788 14.9988 13.2287L15.0678 13.1539L15.0813 13.1372C15.4847 12.6878 15.8306 12.19 16.1112 11.6553L16.1116 11.6544L16.1135 11.6512L16.1162 11.6462C16.2329 11.429 16.3145 11.2568 16.3753 11.1004L16.3776 11.0959C16.3821 11.0864 16.3852 11.0756 16.3893 11.0662C16.5065 10.7975 16.6052 10.5199 16.6886 10.2188C16.8801 9.56571 16.977 8.87565 16.977 8.16801V3.66032H17.6081V13.4437C17.3679 13.4962 17.153 13.6292 16.9989 13.8206C16.8447 14.012 16.7607 14.2504 16.7607 14.4962V16.0647C16.7607 16.5785 17.1244 17.009 17.6081 17.1126V26.8969H16.9725Z" fill="#838D95"/>
</svg>
