<svg width="29" height="22" viewBox="0 0 29 22" fill="none" xmlns="http://www.w3.org/2000/svg">
<path fill-rule="evenodd" clip-rule="evenodd" d="M20.4506 15.9641C20.5645 18.5425 18.4835 20.7228 15.8031 20.8324C15.6057 20.8407 5.98069 20.8213 5.98069 20.8213C3.31324 21.0238 0.97868 19.107 0.768282 16.5383C0.75243 16.3469 0.756753 6.01946 0.756753 6.01946C0.638584 3.4383 2.71663 1.25242 5.39849 1.13869C5.5988 1.12898 15.2108 1.14701 15.2108 1.14701C17.8913 0.947287 20.233 2.87796 20.4405 5.45912C20.4549 5.64497 20.4506 15.9641 20.4506 15.9641Z" stroke="#838D95" stroke-width="1.1" stroke-linecap="round" stroke-linejoin="round"/>
<path d="M20.4551 8.14099L25.0895 4.34814C26.2379 3.40802 27.9606 4.2271 27.9592 5.70906L27.9423 16.0518C27.9409 17.5337 26.2168 18.3458 25.0712 17.4057L20.4551 13.6128" stroke="#838D95" stroke-width="1.1" stroke-linecap="round" stroke-linejoin="round"/>
</svg>
