<svg width="18" height="18" viewBox="0 0 18 18" fill="none" xmlns="http://www.w3.org/2000/svg">
<path fill-rule="evenodd" clip-rule="evenodd" d="M10.7778 2.5058C10.7778 1.86186 10.2558 1.33984 9.61182 1.33984H8.38818C7.74424 1.33984 7.22222 1.86186 7.22222 2.5058V2.7343C7.22222 3.11458 6.967 3.44496 6.61579 3.59077V3.59077C6.26444 3.73664 5.85536 3.68105 5.58636 3.41205L5.34044 3.16613C4.82273 2.64842 3.98336 2.64842 3.46565 3.16613L2.82629 3.80549C2.30858 4.32321 2.30858 5.16258 2.82629 5.68029L3.07221 5.92621C3.3412 6.19521 3.3968 6.60429 3.25093 6.95563V6.95563C3.10511 7.30685 2.77474 7.56207 2.39446 7.56207H2.16596C1.52202 7.56207 1 8.08408 1 8.72802V9.95167C1 10.5956 1.52202 11.1176 2.16596 11.1176H2.52868C2.82933 11.1176 3.09125 11.3185 3.20043 11.5986V11.5986C3.30535 11.8678 3.25534 12.176 3.05104 12.3803L2.76803 12.6633C2.28249 13.1488 2.28249 13.9361 2.76803 14.4216L3.62567 15.2792C4.055 15.7086 4.75107 15.7086 5.18039 15.2792L5.21995 15.2397C5.5542 14.9054 6.06654 14.849 6.4993 15.0391V15.0391C6.91564 15.2221 7.22222 15.6162 7.22222 16.0709V16.1739C7.22222 16.8178 7.74424 17.3398 8.38818 17.3398H9.61182C10.2558 17.3398 10.7778 16.8178 10.7778 16.1739V15.9454C10.7778 15.5651 11.033 15.2347 11.3842 15.0889V15.0889C11.7356 14.943 12.1446 14.9986 12.4136 15.2676L12.491 15.3451C12.884 15.738 13.5212 15.738 13.9141 15.3451L15.0052 14.254C15.3982 13.861 15.3982 13.2239 15.0052 12.8309L14.9278 12.7535C14.6588 12.4845 14.6032 12.0754 14.7491 11.7241V11.7241C14.8949 11.3728 15.2253 11.1176 15.6055 11.1176H15.834C16.478 11.1176 17 10.5956 17 9.95167V8.72802C17 8.08408 16.478 7.56207 15.834 7.56207H15.7311C15.2763 7.56207 14.8822 7.25548 14.6993 6.83914V6.83914C14.5091 6.40639 14.5656 5.89404 14.8998 5.5598L14.9394 5.52024C15.3687 5.09092 15.3687 4.39486 14.9394 3.96554L14.0817 3.10788C13.5962 2.62234 12.809 2.62234 12.3234 3.10788L12.0404 3.39088C11.8361 3.59518 11.5279 3.6452 11.2587 3.54028V3.54028C10.9786 3.4311 10.7778 3.16917 10.7778 2.86852V2.5058ZM9 12.0065C10.4728 12.0065 11.6667 10.8126 11.6667 9.33984C11.6667 7.86708 10.4728 6.67318 9 6.67318C7.52724 6.67318 6.33333 7.86708 6.33333 9.33984C6.33333 10.8126 7.52724 12.0065 9 12.0065Z" stroke="white" stroke-width="0.8" stroke-linejoin="round"/>
</svg>
