<svg width="18" height="17" viewBox="0 0 18 17" fill="none" xmlns="http://www.w3.org/2000/svg">
<path fill-rule="evenodd" clip-rule="evenodd" d="M3.73188 5.67318C2.95868 5.67318 2.33187 6.29998 2.33187 7.07319V13.6065C2.33187 14.3797 2.95868 15.0065 3.73188 15.0065H10.2652C11.0384 15.0065 11.6652 14.3797 11.6652 13.6065V8.9135C11.6652 8.54531 11.9637 8.24683 12.3319 8.24683C12.7001 8.24683 12.9986 8.54531 12.9986 8.9135V13.6065C12.9986 15.1161 11.7748 16.3399 10.2652 16.3399H3.73188C2.2223 16.3399 0.998535 15.1161 0.998535 13.6065V7.07319C0.998535 5.56361 2.2223 4.33984 3.73188 4.33984H8.42492C8.79311 4.33984 9.09159 4.63832 9.09159 5.00651C9.09159 5.3747 8.79311 5.67318 8.42492 5.67318H3.73188Z" fill="white"/>
<path fill-rule="evenodd" clip-rule="evenodd" d="M9.67067 1.00651C9.67067 0.638325 9.96916 0.339844 10.3373 0.339844H16.0781L16.0925 0.34047C16.5838 0.361777 16.9777 0.754098 17.0011 1.24526L17.0018 1.26109V6.93865C17.0018 7.30684 16.7034 7.60532 16.3351 7.60532C15.967 7.60532 15.6685 7.30684 15.6685 6.93865V2.64132L10.1366 8.17322C9.87626 8.43356 9.45415 8.43356 9.19381 8.17322C8.93344 7.91287 8.93344 7.49075 9.19381 7.2304L14.751 1.67318H10.3373C9.96916 1.67318 9.67067 1.3747 9.67067 1.00651Z" fill="white"/>
</svg>
