<svg width="23" height="11" viewBox="0 0 23 11" fill="none" xmlns="http://www.w3.org/2000/svg">
<path d="M21.8309 5.72909L20.5602 2.93507C20.4475 2.73829 20.2848 2.57474 20.0887 2.46097C19.8925 2.3472 19.6698 2.28723 19.443 2.28712H14.2189C13.9921 2.28701 13.7694 2.22704 13.5732 2.11327C13.377 1.99949 13.2144 1.83595 13.1016 1.63917L12.6509 0.851347C12.5377 0.654505 12.3745 0.491062 12.1779 0.377572C11.9813 0.264082 11.7581 0.204576 11.5311 0.205081H3.83907C3.61228 0.205191 3.38955 0.265162 3.19337 0.378935C2.99719 0.492707 2.83452 0.656249 2.72179 0.853032L1.12088 3.64706C1.00775 3.84503 0.948242 4.0691 0.948242 4.29712C0.948242 4.52513 1.00775 4.7492 1.12088 4.94717L2.72179 7.7412C2.83452 7.93798 2.99719 8.10152 3.19337 8.21529C3.38955 8.32907 3.61228 8.38904 3.83907 8.38915H9.18445C9.41123 8.38926 9.63397 8.44923 9.83015 8.563C10.0263 8.67677 10.189 8.84032 10.3017 9.0371L10.7525 9.82492C10.8652 10.0217 11.0279 10.1852 11.2241 10.299C11.4203 10.4128 11.643 10.4728 11.8698 10.4729H19.4531C19.6799 10.4728 19.9026 10.4128 20.0988 10.299C20.295 10.1852 20.4576 10.0217 20.5704 9.82492L21.841 7.03089C21.9541 6.83292 22.0136 6.60885 22.0136 6.38084C22.0136 6.15282 21.9541 5.92875 21.841 5.73078L21.8309 5.72909ZM19.0453 8.15996H12.8101C12.6322 8.16177 12.4608 8.09316 12.3333 7.9691C12.2057 7.84504 12.1324 7.67558 12.1293 7.49769C12.1293 7.49769 11.9709 6.15881 11.0558 6.13017H4.82068C4.64277 6.13197 4.47136 6.06336 4.34382 5.9393C4.21629 5.81524 4.14298 5.64579 4.13987 5.46789V2.50535H10.375C10.739 2.50535 10.9842 2.74212 11.0558 3.16762C11.0558 3.16762 11.2859 4.53093 12.1293 4.53515H18.3645C18.5419 4.53508 18.7123 4.60426 18.8394 4.72795C18.9666 4.85165 19.0404 5.02009 19.0453 5.19742V8.15996Z" fill="#D52927"/>
</svg>
