<svg width="50" height="50" viewBox="0 0 50 50" fill="none" xmlns="http://www.w3.org/2000/svg">
<circle cx="25" cy="25" r="25" fill="#53616C"/>
<path d="M33.9359 11.7911L35.5565 11.4207C36.0734 11.3028 36.3966 10.788 36.2785 10.2708C36.1606 9.75407 35.6458 9.43049 35.129 9.54881L31.2156 10.4428C30.6989 10.5611 30.3753 11.0759 30.4936 11.5926L31.3875 15.506C31.4891 15.9511 31.8848 16.2522 32.3226 16.2522C32.3934 16.2522 32.4653 16.2444 32.5372 16.2281C33.054 16.1099 33.3776 15.5951 33.2593 15.0782L32.8739 13.3907C37.1522 16.2959 39.504 21.3303 38.9233 26.5381C38.5087 30.2589 36.6699 33.5951 33.7456 35.9327C31.2371 37.9381 28.1872 39.0027 25.0215 39.0025C24.4976 39.0025 23.9701 38.9732 23.4416 38.9144C22.9141 38.8555 22.4399 39.2354 22.381 39.7621C22.3221 40.2892 22.7019 40.7638 23.2288 40.8227C23.8299 40.8898 24.4291 40.9229 25.0252 40.9229C28.6244 40.9225 32.0922 39.7126 34.9446 37.4323C38.2691 34.7746 40.3601 30.9811 40.8317 26.7509C41.4927 20.8226 38.8114 15.0918 33.9359 11.7911Z" fill="white"/>
<path d="M18.4408 34.2751C18.3228 33.7583 17.8078 33.4349 17.2909 33.553C16.7741 33.6714 16.4509 34.1858 16.5689 34.7029L16.9751 36.4809C12.788 33.5614 10.4958 28.5816 11.0699 23.4327C11.4845 19.7119 13.3233 16.3757 16.2476 14.0381C19.1718 11.7007 22.8312 10.642 26.5518 11.0564C27.0789 11.1161 27.5533 10.7356 27.6122 10.2087C27.6709 9.68159 27.2915 9.20694 26.7644 9.14807C22.5341 8.67634 18.3733 9.88042 15.0484 12.5385C11.7239 15.1961 9.63326 18.9897 9.16173 23.2198C8.51184 29.0471 11.0913 34.6834 15.8102 38.0089L14.2718 38.3604C13.755 38.4783 13.4315 38.9931 13.5498 39.5103C13.6513 39.9549 14.0469 40.2565 14.4849 40.2565C14.5556 40.2565 14.6276 40.2487 14.6995 40.2323L18.6127 39.3384C19.1296 39.22 19.4528 38.7052 19.3347 38.1885L18.4408 34.2751Z" fill="white"/>
<path d="M16.7333 31.4835H33.3795C33.9097 31.4835 34.3395 31.0537 34.3395 30.5235V19.8735L25.7028 27.7354C25.5197 27.9019 25.2881 27.9853 25.0564 27.9853C24.8248 27.9853 24.5934 27.9019 24.4102 27.7354L15.7734 19.8735V30.5235C15.7734 31.0537 16.2033 31.4835 16.7333 31.4835Z" fill="white"/>
<path d="M33.0047 18.4893H17.1016L25.0529 25.727L33.0047 18.4893Z" fill="white"/>
</svg>
